# xmcd
#
# Track frame offsets: 
#        150
#        11757
#        27915
#        40022
#        53130
#        69255
#        85707
#        102057
#        117647
#        129777
#
# Disc length: 2049 seconds
#
# Revision: 2
# Processed by: cddbd v1.5.1PL2 Copyright (c) Steve Scherf et al.
# Submitted via: ExactAudioCopy v0.95b3
#
DISCID=7307ff0a
DTITLE=Tony Toliver - Tony Toliver
DYEAR=1991
DGENRE=Country
TTITLE0=Back In The Swing Of Things
TTITLE1=Bar Stool Fool
TTITLE2=Freedom Ring
TTITLE3=The Cost Of Lovin' You
TTITLE4=Swinging Doors
TTITLE5=Splittin' Heartache
TTITLE6=She Was All Over Him
TTITLE7=That's How Strong My Weakness Is
TTITLE8=Lost And Found
TTITLE9=Mamaw's Song
EXTD=
EXTT0=
EXTT1=
EXTT2=
EXTT3=
EXTT4=
EXTT5=
EXTT6=
EXTT7=
EXTT8=
EXTT9=
PLAYORDER=
